<svg width="32" height="32" viewBox="0 0 32 32" fill="none" xmlns="http://www.w3.org/2000/svg">
  <rect width="32" height="32" rx="7" fill="#16181d" />
  <path d="M10.436 9.638C9.486 9.638 8.570 10.487 8.570 11.335C8.570 12.183 9.486 13.031 10.436 13.031C11.386 13.031 12.302 12.183 12.302 11.335C12.302 10.487 11.386 9.638 10.436 9.638M6.500 22.362L15.033 22.362L15.033 20.496L11.861 20.496L11.861 13.879L7.263 13.879L7.263 15.746L9.655 15.746L9.655 20.496L6.500 20.496M16.984 22.362L21.242 22.362C25.483 22.362 25.500 18.137 25.500 18.121C25.500 18.104 25.483 13.879 21.242 13.879L19.189 13.879L19.189 9.638L16.984 9.638M19.189 20.496L19.189 15.746L21.242 15.746C23.278 15.746 23.295 18.121 23.295 18.121C23.295 18.121 23.278 20.496 21.242 20.496" fill="#5aa6ea" />
</svg>
